<svg width="3665" height="1049" viewBox="0 0 3665 1049" fill="none" xmlns="http://www.w3.org/2000/svg">
<path d="M1494.46 413.421C1540.36 413.099 1550.23 414.601 1562.83 423.984C1571.84 430.578 1578.7 441.676 1580.37 452.292C1581.92 461.889 1598.81 556.576 1617.9 662.735C1637.04 768.895 1652.65 859.989 1652.65 865.136C1652.65 873.553 1645.89 874.519 1518.59 874.519L1516.13 859.774C1514.79 851.676 1503.63 775.06 1491.35 689.543C1479.13 604.028 1468.03 532.827 1466.74 531.376C1465.46 529.875 1462.18 532.287 1459.5 536.737C1456.82 541.134 1402.07 618.824 1220.99 873.821L1076.22 875.001L1089.94 857.361C1097.5 847.603 1126.67 808.302 1154.77 769.967C1177.16 739.364 1222.2 677.841 1264.72 619.763L1296.06 576.949C1345.66 509.126 1390.22 447.737 1395 440.497C1399.77 433.259 1412.05 424.305 1422.29 420.606C1432.48 416.906 1464.97 413.689 1494.46 413.421ZM336.232 173C338.259 172.975 349.217 177.424 360.523 182.87C373.793 189.263 387.632 199.057 399.477 210.41C409.547 220.101 420.948 234.369 424.78 242.092C430.449 253.496 431.748 261.219 431.717 283.005C431.685 308.269 430.956 311.184 419.84 332.229C413.348 344.528 407.14 358.925 406.063 364.192C404.987 369.46 405.684 378.103 407.647 383.37C409.864 389.379 415.027 395.056 421.487 398.559C427.156 401.627 437.48 404.619 444.447 405.182C453.98 405.949 459.808 404.721 467.915 400.221C473.837 396.922 481.691 390.99 485.333 387.001C490.052 381.861 492.3 374.881 493.187 362.709C494.01 351.253 492.712 341.664 489.229 333.507C486.379 326.834 485.112 321.311 486.409 321.259C487.708 321.208 495.847 324.941 504.493 329.569C513.139 334.198 526.06 343.736 533.186 350.768C540.311 357.8 549.4 370.457 553.391 378.896C557.381 387.334 561.562 401.296 564.792 425.639L596.461 410.552C613.878 402.242 629.205 395.466 630.506 395.49C631.804 395.49 631.932 397.537 630.76 399.991C629.619 402.447 624.521 414.823 619.485 427.48C614.45 440.137 608.369 455.095 605.962 460.721C603.555 466.346 594.719 477.087 586.358 484.605C577.174 492.838 564.19 500.97 553.707 505.035C536.574 511.683 534.895 511.837 450.781 513.32C392.541 514.343 307.014 515.902 299.477 518.152C294.626 519.621 287.479 523.157 281.893 526.746C281.969 526.894 281.946 527.043 281.812 527.194C278.433 530.948 271.784 546.711 267.065 562.205C262.347 577.7 260.309 591.319 262.508 592.498C264.706 593.678 322.028 594.911 389.859 595.125C457.689 595.393 513.454 596.251 513.832 597.002C514.207 597.753 505.735 618.287 475.653 686.809L228.994 689.543L217.251 727.074C210.763 747.717 198.108 789.323 172.691 874.519H108.346C72.9554 874.519 44 873.338 44 871.837C44.0049 870.32 70.7597 780.466 103.466 672.118C122.134 610.375 140.231 553.07 153.296 513.824C161.847 477.641 170.153 444.479 172.723 436.429C175.605 427.3 183.332 411.191 189.888 400.63C196.443 390.095 210.188 373.397 220.48 363.553C230.741 353.708 251.137 337.522 265.8 327.575C280.431 317.628 299.085 303.231 307.224 295.611C315.363 287.966 326.763 273.672 332.559 263.827C342.503 246.976 343.105 244.368 342.915 219.078C342.788 200.361 341.173 189.34 337.626 182.641C334.047 175.916 333.636 173.026 336.232 173ZM782.155 413.421C842.747 413.421 848.056 414.225 845.321 422.804C843.659 427.951 820.655 504.568 794.273 593.034C767.838 681.499 746.283 756.882 746.336 760.584C746.443 765.785 778.509 767.286 888.54 767.286C966.667 767.286 1030.64 769.109 1030.64 771.308C1030.64 773.507 1023.4 797.636 998.465 874.519H829.557C680.704 874.519 658.021 873.393 638.449 865.136C625.258 859.56 613.3 849.747 608.957 841.008C604.935 832.912 601.665 820.849 601.611 814.2C601.611 807.552 627.349 714.689 658.825 607.778L716.039 413.421H782.155ZM2462.01 468.377C2452.95 498.616 2427.48 584.832 2405.33 660.055C2383.19 735.278 2359.6 813.664 2340.83 871.837L2210.31 874.519L2215.41 859.774C2218.25 851.677 2235.09 795.594 2252.89 735.116C2270.74 674.638 2285.33 623.381 2285.33 621.183C2285.38 618.985 2246.18 658.34 2111.11 800.152L2020.6 796.776L2000.22 743.159C1989.02 713.671 1974.38 673.244 1967.73 653.299C1961.08 633.356 1954.43 617.111 1952.93 617.161C1951.48 617.268 1933.2 674.638 1874.53 871.837L1743.8 874.519L1747.29 862.454C1749.22 855.803 1777 762.298 1809.01 654.692C1840.97 547.032 1869.6 453.579 1872.5 446.931C1875.45 440.282 1885.69 430.041 1895.29 424.144C1909.01 415.726 1922.15 413.475 1956.95 413.421C1995.24 413.421 2003.01 415.029 2014.81 425.484C2024.67 434.224 2038.78 467.037 2066.18 544.78C2086.93 603.755 2104.35 652.598 2104.84 653.299C2105.32 654.05 2151.6 603.65 2207.63 541.402C2263.67 479.154 2316.16 424.841 2324.26 420.819C2334.5 415.672 2360.24 413.421 2478.42 413.421L2462.01 468.377ZM2863.16 413.314C2967.13 413.367 3052.12 415.244 3052.01 417.442C3051.9 419.643 3042.79 443.182 3011.85 517.972L2864.44 519.098C2752.27 519.902 2715.38 521.833 2710.12 527.141C2706.26 530.948 2699.77 546.12 2695.64 560.864C2691.51 575.609 2689.42 588.852 2690.98 590.354C2692.53 591.855 2750.28 593.624 2819.35 594.375C2888.41 595.126 2944.92 596.894 2944.93 598.396C2944.93 599.897 2936.89 619.789 2909.06 684.182L2658.05 689.543L2646.69 724.394C2640.41 743.533 2636.18 761.065 2637.3 763.265C2638.37 765.463 2709.26 767.286 2950.29 767.286L2947.4 779.35C2945.79 785.998 2938.98 809.482 2919.94 871.837L2740.74 873.446C2632.64 874.411 2554.08 872.909 2542.77 869.692C2532.47 866.744 2518.58 858.808 2511.99 851.999C2505.34 845.243 2498.48 831.197 2496.71 820.902C2494.24 806.533 2504.37 764.927 2539.82 643.97C2571.08 537.383 2590.92 478.834 2600.68 464.357C2610.06 450.524 2625.72 437.655 2644.7 428.058L2674.14 413.26L2863.16 413.314ZM3610.43 441.516C3604.85 457.011 3595.2 481.139 3577.72 520.6L3423.56 520.439C3338.51 520.385 3266.98 522.476 3264.03 525.156C3261.08 527.837 3255.02 541.027 3250.63 554.484C3243.44 576.199 3243.44 579.898 3250.63 588.048C3257.86 596.358 3269.07 596.894 3368.59 593.945C3429.02 592.176 3489.35 592.874 3502.65 595.555C3515.89 598.236 3532.78 604.938 3540.18 610.46C3547.53 615.983 3558.2 629.976 3563.88 641.61C3572.78 659.786 3573.43 666.435 3568.5 689.489C3565.33 704.234 3556.48 737.422 3548.76 763.211C3539.11 795.756 3529.46 816.13 3517.39 829.588C3507.8 840.311 3490.31 854.198 3478.52 860.417C3457.82 871.408 3449.45 871.837 3243.92 873.124C3126.65 873.875 3030.78 872.695 3030.78 870.443C3030.78 868.245 3038.02 844.118 3062.95 767.233H3234.54C3328.91 767.233 3409.72 766.053 3414.17 764.552C3418.57 763.104 3426.08 748.038 3430.79 731.042C3439.05 701.714 3439 699.891 3429.45 693.457C3422.11 688.417 3385.75 686.648 3289.5 686.755C3184.46 686.809 3156.36 685.308 3143.38 678.767C3134.54 674.37 3123.65 663.485 3119.25 654.639C3114.8 645.792 3111.21 629.547 3111.21 618.448C3111.16 607.403 3118.07 574.215 3126.49 544.727C3134.91 515.238 3145.53 483.872 3150.09 475.026C3154.7 466.179 3164.08 453.847 3171 447.574C3177.92 441.301 3189.61 433.098 3197 429.291C3204.35 425.484 3216.42 420.552 3223.82 418.354C3231.16 416.155 3323.45 414.118 3620.62 413.367L3610.43 441.516Z" fill="#F2681D"/>
</svg>
