<svg width="728" height="728" viewBox="0 0 728 728" fill="none" xmlns="http://www.w3.org/2000/svg">
<path d="M362.697 69.0001C364.402 68.9792 373.614 72.7201 383.119 77.2989C394.276 82.6736 405.912 90.9078 415.87 100.453C424.337 108.601 433.923 120.597 437.145 127.09C441.911 136.678 443.002 143.171 442.976 161.488C442.949 182.729 442.337 185.18 432.991 202.873C427.533 213.214 422.314 225.317 421.408 229.746C420.503 234.175 421.089 241.441 422.739 245.87C424.603 250.922 428.943 255.695 434.375 258.641C439.141 261.221 447.822 263.736 453.68 264.209C461.694 264.854 466.594 263.822 473.41 260.038C478.389 257.265 484.993 252.278 488.055 248.924C492.022 244.603 493.912 238.733 494.657 228.5C495.35 218.869 494.258 210.806 491.329 203.948C488.933 198.337 487.868 193.693 488.96 193.65C490.053 193.608 496.895 196.746 504.163 200.637C511.432 204.528 522.296 212.548 528.287 218.46C534.278 224.372 541.92 235.014 545.274 242.108C548.629 249.203 552.144 260.942 554.86 281.408L581.486 268.724C596.131 261.737 609.019 256.039 610.11 256.061C611.202 256.061 611.308 257.781 610.323 259.845C609.365 261.909 605.077 272.314 600.844 282.956C596.61 293.598 591.498 306.175 589.475 310.904C587.451 315.634 580.023 324.664 572.993 330.984C565.271 337.907 554.354 344.744 545.541 348.162C531.136 353.752 529.725 353.88 459.005 355.127C410.039 355.987 338.131 357.299 331.794 359.191C327.716 360.425 321.708 363.398 317.011 366.416C317.075 366.54 317.055 366.665 316.942 366.792C314.102 369.948 308.512 383.2 304.545 396.228C300.578 409.255 298.864 420.706 300.713 421.697C302.565 422.689 350.757 423.726 407.784 423.906C464.814 424.132 511.701 424.852 512.017 425.483C512.332 426.115 505.208 443.381 479.917 500.989L272.536 503.288L262.663 534.843C257.208 552.198 246.568 587.179 225.199 658.808H171.1C141.345 658.808 117 657.816 117 656.554C117.004 655.28 139.499 579.733 166.997 488.638C182.694 436.722 197.909 388.54 208.894 355.543C216.082 325.125 223.065 297.248 225.225 290.481C227.648 282.805 234.145 269.261 239.656 260.382C245.168 251.524 256.723 237.486 265.377 229.209C274.004 220.932 291.151 207.323 303.479 198.96C315.781 190.597 331.464 178.494 338.307 172.087C345.15 165.659 354.736 153.641 359.608 145.364C367.969 131.197 368.475 129.003 368.315 107.741C368.209 92.0043 366.85 82.7382 363.868 77.1056C360.859 71.4514 360.514 69.0216 362.697 69.0001Z" fill="#F2681D"/>
</svg>
